<?xml version="1.0" encoding="UTF-8"?>
<svg width="23px" height="23px" viewBox="0 0 23 23" version="1.1" xmlns="http://www.w3.org/2000/svg" xmlns:xlink="http://www.w3.org/1999/xlink">
    <!-- Generator: sketchtool 57.1 (101010) - https://sketch.com -->
    <title>91713DEA-53D8-4321-834B-928D9D9EF797</title>
    <desc>Created with sketchtool.</desc>
    <g id="Mobile" stroke="none" stroke-width="1" fill="none" fill-rule="evenodd">
        <g id="1.3---exercises" transform="translate(-322.000000, -155.000000)" stroke="#FFFFFF">
            <g id="ic/line/hearth" transform="translate(322.000000, 155.000000)">
                <path d="M3.01990124,13.7789048 C2.17317717,13.1193746 1.50022623,12.2326596 1.07126771,11.213105 C0.413906681,9.65102859 0.355933183,7.90245014 0.907337587,6.29304699 C1.46100268,4.67589241 2.56522247,3.38417616 4.01701485,2.6630428 C6.70861865,1.32208273 9.86137569,2.29520075 11.4948345,4.95643802 L11.5000787,4.96497181 L11.5041738,4.95832314 C13.1379985,2.29561844 16.2921157,1.32185588 18.9832794,2.66286421 C21.9744373,4.15007077 23.2861216,7.98151427 21.9294008,11.2130683 C21.5700826,12.0671008 21.0391366,12.8281504 20.378712,13.4401445 L20.4210048,13.4401445 L11.4995622,20.3501132 L3.01803574,13.7795814 L3.01990116,13.7789048 Z M11.288736,20.3046117 L11.5076207,20.4612618 L11.7072727,20.308354 L20.0259035,13.8643316 C20.1286536,13.7678527 20.2831951,13.6220734 20.4374672,13.4752105 C20.4417947,13.4710906 20.4417947,13.4710906 20.446121,13.4669707 C20.6432783,13.2792091 20.7899589,13.1365153 20.8124324,13.1110043 C21.2814178,12.5803847 21.6668689,11.9649651 21.9497524,11.2943969 C23.3432592,7.97395275 21.9962692,4.04002144 18.9688181,2.5329641 C16.5027755,1.30681462 13.6302674,2.0189397 11.8958281,4.27254464 L11.4995923,4.7873847 L11.1033566,4.27254464 C9.36892816,2.01895396 6.49694977,1.3068313 4.03196437,2.53289975 C1.00329762,4.03988518 -0.343692084,7.97453617 1.05067914,11.29387 C1.30891288,11.9072224 1.65388935,12.4750522 2.0712742,12.9758885 C2.10666148,13.0181874 2.26423136,13.1774859 2.48098717,13.3900673 C2.48873031,13.3976601 2.48873031,13.3976601 2.49647837,13.405253 C2.67351547,13.5787172 2.85095697,13.7501429 2.92890144,13.828763 L11.288736,20.3046117 Z" id="Fill-1"></path>
            </g>
        </g>
    </g>
</svg>